<svg width="139" height="29" viewBox="0 0 139 29" fill="none" xmlns="http://www.w3.org/2000/svg">
<g clip-path="url(#clip0_1306_33945)">
<path d="M27.1458 13.7999V20.1649H27.1509C27.1509 20.6937 26.9951 21.1928 26.7238 21.6178L26.7188 21.6227C26.4575 22.0329 26.0857 22.3689 25.6486 22.5963L16.6151 27.7307C16.1529 27.9927 15.6404 28.1113 15.138 28.0964H15.1329C14.6154 28.0816 14.108 27.9235 13.6809 27.6418L4.68257 22.537C4.25049 22.2899 3.90884 21.939 3.66768 21.5338C3.42652 21.1187 3.29589 20.6492 3.29589 20.1699V13.8049C4.38112 14.6647 5.56683 15.4109 6.83294 16.0237V19.7399L15.2234 24.5038L23.6138 19.735V16.0237C24.8749 15.406 26.0606 14.6647 27.1458 13.7999ZM30.4317 0.140911L30.4367 0.4473L30.4417 0.467067C30.4417 4.59838 28.7385 8.34423 25.9853 11.0523C23.232 13.7604 19.4236 15.4357 15.2234 15.4357C11.0231 15.4357 7.21478 13.7604 4.46151 11.0523C1.70321 8.34917 0 4.60332 0 0.472009L0.00502422 0.457184L0.0100484 0.0964355L3.5471 0.150795L3.54207 0.472009H3.5471C3.5471 2.85888 4.29068 5.07773 5.55678 6.91606L13.8317 2.21645V2.20657C14.2688 1.95948 14.7461 1.84088 15.2184 1.84088V1.84582C15.7107 1.84582 16.1931 1.96936 16.605 2.20657V2.21151L24.8749 6.90618C26.146 5.06784 26.8846 2.84899 26.8846 0.462126H26.8896L26.8846 0.175504L30.4317 0.140911ZM8.03875 9.52037C10.0183 11.0424 12.5103 11.9517 15.2184 11.9517C17.9264 11.9517 20.4184 11.0424 22.398 9.52037L15.2234 5.44342L8.03875 9.52037Z" fill="#5D64E9"/>
<path d="M49.4433 20.9654H53.1311L50.5034 17.1998C52.0157 16.4832 52.8849 15.1786 52.8849 13.4193C52.8849 10.6816 50.7948 8.98659 47.4738 8.98659H41.907V20.9654H45.3536V17.7829H47.2327L49.4433 20.9654ZM49.4081 13.4144C49.4081 14.5115 48.6947 15.1588 47.2678 15.1588H45.3536V11.6502H47.2678C48.6947 11.6551 49.4081 12.3025 49.4081 13.4144ZM63.903 20.9654H67.4853L62.0893 8.98659H58.6979L53.322 20.9654H56.839L57.7936 18.6378H62.9434L63.903 20.9654ZM58.8034 16.1373L60.371 12.3025L61.9385 16.1373H58.8034ZM75.9963 20.9654H79.6841L77.0564 17.1998C78.5687 16.4832 79.4379 15.1786 79.4379 13.4193C79.4379 10.6816 77.3478 8.98659 74.0268 8.98659H68.46V20.9654H71.9066V17.7829H73.7856L75.9963 20.9654ZM75.9611 13.4144C75.9611 14.5115 75.2477 15.1588 73.8208 15.1588H71.9066V11.6502H73.8208C75.2477 11.6551 75.9611 12.3025 75.9611 13.4144ZM84.7485 18.3463V16.1571H90.1596V13.622H84.7485V11.6008H90.8931V8.98165H81.3421V20.9605H91.1192V18.3413H84.7485V18.3463ZM99.0876 21.2026C101.333 21.2026 103.142 20.3971 104.323 18.9442L102.132 16.9922C101.369 17.9015 100.429 18.3957 99.2635 18.3957C97.2638 18.3957 95.8721 17.0268 95.8721 14.9711C95.8721 12.9153 97.2638 11.5464 99.2635 11.5464C100.429 11.5464 101.369 12.0406 102.132 12.9499L104.323 10.9979C103.137 9.54501 101.328 8.7395 99.0876 8.7395C95.224 8.7395 92.3903 11.324 92.3903 14.9711C92.3853 18.6181 95.224 21.2026 99.0876 21.2026ZM111.734 21.2026C115.632 21.2026 118.501 18.5687 118.501 14.9711C118.501 11.3784 115.632 8.7395 111.734 8.7395C107.835 8.7395 104.966 11.3735 104.966 14.9711C104.966 18.5687 107.84 21.2026 111.734 21.2026ZM111.734 18.3957C109.89 18.3957 108.443 17.0417 108.443 14.9711C108.443 12.9005 109.885 11.5464 111.734 11.5464C113.577 11.5464 115.019 12.9005 115.019 14.9711C115.024 17.0417 113.577 18.3957 111.734 18.3957ZM135.714 8.98165L133.157 16.7007L130.705 8.98165H127.54L124.967 16.6315L122.516 8.98165H118.963L122.912 20.9605H126.6L129.037 13.6714L131.368 20.9605H135.056L139.005 8.98165H135.714V8.98165Z" fill="currentColor"/>
</g>
<defs>
<clipPath id="clip0_1306_33945">
<rect width="139" height="28" fill="white" transform="translate(0 0.0964355)"/>
</clipPath>
</defs>
</svg>
