<svg width="105" height="19" viewBox="0 0 105 19" fill="none" xmlns="http://www.w3.org/2000/svg">
<path d="M0.517045 18V0.545454H7.40341C8.72159 0.545454 9.84659 0.78125 10.7784 1.25284C11.7159 1.71875 12.429 2.38068 12.9176 3.23864C13.4119 4.09091 13.6591 5.09375 13.6591 6.24716C13.6591 7.40625 13.4091 8.40341 12.9091 9.23864C12.4091 10.0682 11.6847 10.7045 10.7358 11.1477C9.79261 11.5909 8.65057 11.8125 7.30966 11.8125H2.69886V8.84659H6.71307C7.41761 8.84659 8.00284 8.75 8.46875 8.55682C8.93466 8.36364 9.28125 8.07386 9.50852 7.6875C9.74148 7.30114 9.85795 6.82102 9.85795 6.24716C9.85795 5.66761 9.74148 5.17898 9.50852 4.78125C9.28125 4.38352 8.93182 4.08239 8.46023 3.87784C7.99432 3.66761 7.40625 3.5625 6.69602 3.5625H4.20739V18H0.517045ZM9.94318 10.0568L14.2812 18H10.2074L5.96307 10.0568H9.94318ZM19.9318 18.2472C19.0966 18.2472 18.3523 18.1023 17.6989 17.8125C17.0455 17.517 16.5284 17.0824 16.1477 16.5085C15.7727 15.929 15.5852 15.2074 15.5852 14.3438C15.5852 13.6165 15.7188 13.0057 15.9858 12.5114C16.2528 12.017 16.6165 11.6193 17.0767 11.3182C17.5369 11.017 18.0597 10.7898 18.6449 10.6364C19.2358 10.483 19.8551 10.375 20.5028 10.3125C21.2642 10.233 21.8778 10.1591 22.3438 10.0909C22.8097 10.017 23.1477 9.90909 23.358 9.76705C23.5682 9.625 23.6733 9.41477 23.6733 9.13636V9.08523C23.6733 8.54545 23.5028 8.12784 23.1619 7.83239C22.8267 7.53693 22.3494 7.3892 21.7301 7.3892C21.0767 7.3892 20.5568 7.53409 20.1705 7.82386C19.7841 8.10795 19.5284 8.46591 19.4034 8.89773L16.0455 8.625C16.2159 7.82955 16.5511 7.14205 17.0511 6.5625C17.5511 5.97727 18.196 5.52841 18.9858 5.21591C19.7813 4.89773 20.7017 4.73864 21.7472 4.73864C22.4744 4.73864 23.1705 4.82386 23.8352 4.99432C24.5057 5.16477 25.0994 5.42898 25.6165 5.78693C26.1392 6.14489 26.5511 6.60511 26.8523 7.16761C27.1534 7.72443 27.304 8.39205 27.304 9.17045V18H23.8608V16.1847H23.7585C23.5483 16.5938 23.267 16.9545 22.9148 17.267C22.5625 17.5739 22.1392 17.8153 21.6449 17.9915C21.1506 18.1619 20.5795 18.2472 19.9318 18.2472ZM20.9716 15.7415C21.5057 15.7415 21.9773 15.6364 22.3864 15.4261C22.7955 15.2102 23.1165 14.9205 23.3494 14.5568C23.5824 14.1932 23.6989 13.7812 23.6989 13.321V11.9318C23.5852 12.0057 23.429 12.0739 23.2301 12.1364C23.0369 12.1932 22.8182 12.2472 22.5739 12.2983C22.3295 12.3437 22.0852 12.3864 21.8409 12.4261C21.5966 12.4602 21.375 12.4915 21.1761 12.5199C20.75 12.5824 20.3778 12.6818 20.0597 12.8182C19.7415 12.9545 19.4943 13.1392 19.3182 13.3722C19.142 13.5994 19.054 13.8835 19.054 14.2244C19.054 14.7188 19.233 15.0966 19.5909 15.358C19.9545 15.6136 20.4148 15.7415 20.9716 15.7415ZM30.1207 18V4.90909H33.6406V7.19318H33.777C34.0156 6.38068 34.4162 5.76705 34.9787 5.35227C35.5412 4.93182 36.1889 4.72159 36.9219 4.72159C37.1037 4.72159 37.2997 4.73295 37.5099 4.75568C37.7202 4.77841 37.9048 4.80966 38.0639 4.84943V8.07102C37.8935 8.01989 37.6577 7.97443 37.3565 7.93466C37.0554 7.89489 36.7798 7.875 36.5298 7.875C35.9957 7.875 35.5185 7.99148 35.098 8.22443C34.6832 8.4517 34.3537 8.76989 34.1094 9.17898C33.8707 9.58807 33.7514 10.0597 33.7514 10.5938V18H30.1207ZM45.2976 18.2557C43.951 18.2557 42.7919 17.983 41.8203 17.4375C40.8544 16.8864 40.1101 16.108 39.5874 15.1023C39.0646 14.0909 38.8033 12.8949 38.8033 11.5142C38.8033 10.1676 39.0646 8.9858 39.5874 7.96875C40.1101 6.9517 40.8459 6.15909 41.7947 5.59091C42.7493 5.02273 43.8686 4.73864 45.1527 4.73864C46.0163 4.73864 46.8203 4.87784 47.5646 5.15625C48.3146 5.42898 48.968 5.84091 49.5249 6.39205C50.0874 6.94318 50.5249 7.63636 50.8374 8.47159C51.1499 9.30114 51.3061 10.2727 51.3061 11.3864V12.3835H40.2521V10.1335H47.8885C47.8885 9.6108 47.7749 9.14773 47.5476 8.74432C47.3203 8.34091 47.005 8.02557 46.6016 7.7983C46.2038 7.56534 45.7408 7.44886 45.2124 7.44886C44.6612 7.44886 44.1726 7.5767 43.7464 7.83239C43.326 8.08239 42.9964 8.42045 42.7578 8.84659C42.5192 9.26705 42.397 9.7358 42.3913 10.2528V12.392C42.3913 13.0398 42.5107 13.5994 42.7493 14.071C42.9936 14.5426 43.3374 14.9062 43.7805 15.1619C44.2237 15.4176 44.7493 15.5455 45.3572 15.5455C45.7607 15.5455 46.13 15.4886 46.4652 15.375C46.8004 15.2614 47.0874 15.0909 47.326 14.8636C47.5646 14.6364 47.7464 14.358 47.8714 14.0284L51.2294 14.25C51.0589 15.0568 50.7095 15.7614 50.1811 16.3636C49.6584 16.9602 48.9822 17.4261 48.1527 17.7614C47.3288 18.0909 46.3771 18.2557 45.2976 18.2557Z" fill="#1C1C28"/>
<path d="M69.1442 6.65625H65.4112C65.343 6.1733 65.2038 5.74432 64.9936 5.36932C64.7834 4.98864 64.5135 4.66477 64.1839 4.39773C63.8544 4.13068 63.4737 3.92614 63.0419 3.78409C62.6158 3.64205 62.1527 3.57102 61.6527 3.57102C60.7493 3.57102 59.9624 3.79545 59.2919 4.24432C58.6214 4.6875 58.1016 5.33523 57.7322 6.1875C57.3629 7.03409 57.1783 8.0625 57.1783 9.27273C57.1783 10.517 57.3629 11.5625 57.7322 12.4091C58.1072 13.2557 58.63 13.8949 59.3004 14.3267C59.9709 14.7585 60.7464 14.9744 61.6271 14.9744C62.1214 14.9744 62.5788 14.9091 62.9993 14.7784C63.4254 14.6477 63.8033 14.4574 64.1328 14.2074C64.4624 13.9517 64.7351 13.642 64.951 13.2784C65.1726 12.9148 65.326 12.5 65.4112 12.0341L69.1442 12.0511C69.0476 12.8523 68.8061 13.625 68.4197 14.3693C68.0391 15.108 67.5249 15.7699 66.8771 16.3551C66.2351 16.9347 65.468 17.3949 64.576 17.7358C63.6896 18.071 62.6868 18.2386 61.5675 18.2386C60.0107 18.2386 58.6186 17.8864 57.3913 17.1818C56.1697 16.4773 55.2038 15.4574 54.4936 14.1222C53.7891 12.7869 53.4368 11.1705 53.4368 9.27273C53.4368 7.36932 53.7947 5.75 54.5107 4.41477C55.2266 3.07955 56.1982 2.0625 57.4254 1.36364C58.6527 0.659091 60.0334 0.306818 61.5675 0.306818C62.5788 0.306818 63.5163 0.448863 64.38 0.732954C65.2493 1.01705 66.0192 1.43182 66.6896 1.97727C67.3601 2.51704 67.9055 3.17898 68.326 3.96307C68.7521 4.74716 69.0249 5.64489 69.1442 6.65625ZM77.6371 18.2557C76.3132 18.2557 75.1683 17.9744 74.2024 17.4119C73.2422 16.8437 72.5007 16.054 71.978 15.0426C71.4553 14.0256 71.1939 12.8466 71.1939 11.5057C71.1939 10.1534 71.4553 8.97159 71.978 7.96023C72.5007 6.94318 73.2422 6.15341 74.2024 5.59091C75.1683 5.02273 76.3132 4.73864 77.6371 4.73864C78.9609 4.73864 80.103 5.02273 81.0632 5.59091C82.0291 6.15341 82.7734 6.94318 83.2962 7.96023C83.8189 8.97159 84.0803 10.1534 84.0803 11.5057C84.0803 12.8466 83.8189 14.0256 83.2962 15.0426C82.7734 16.054 82.0291 16.8437 81.0632 17.4119C80.103 17.9744 78.9609 18.2557 77.6371 18.2557ZM77.6541 15.4432C78.2564 15.4432 78.7592 15.2727 79.1626 14.9318C79.5661 14.5852 79.87 14.1136 80.0746 13.517C80.2848 12.9205 80.3899 12.2415 80.3899 11.4801C80.3899 10.7188 80.2848 10.0398 80.0746 9.44318C79.87 8.84659 79.5661 8.375 79.1626 8.02841C78.7592 7.68182 78.2564 7.50852 77.6541 7.50852C77.0462 7.50852 76.5348 7.68182 76.12 8.02841C75.7109 8.375 75.4013 8.84659 75.1911 9.44318C74.9865 10.0398 74.8842 10.7188 74.8842 11.4801C74.8842 12.2415 74.9865 12.9205 75.1911 13.517C75.4013 14.1136 75.7109 14.5852 76.12 14.9318C76.5348 15.2727 77.0462 15.4432 77.6541 15.4432ZM88.6953 18L85.1328 4.90909H88.8061L90.8345 13.7045H90.9538L93.0675 4.90909H96.6726L98.8203 13.6534H98.9311L100.925 4.90909H104.59L101.036 18H97.1925L94.9425 9.76705H94.7805L92.5305 18H88.6953Z" fill="#5D5FEF"/>
</svg>
