<svg width="173" height="34" viewBox="0 0 173 34" fill="none" xmlns="http://www.w3.org/2000/svg">
<g clip-path="url(#clip0_222_103131)">
<path d="M149.975 8.73486C151.015 8.73486 151.988 9.08704 152.844 9.75072C153.738 10.4415 154.225 11.5252 154.33 12.8257C154.335 12.8432 154.333 12.862 154.326 12.8782C154.318 12.8945 154.304 12.907 154.287 12.9133L154.251 12.9203H152.225C152.196 12.9203 152.166 12.905 152.153 12.8803L152.146 12.8525C151.909 10.9699 149.687 10.4551 148.345 11.3764C147.411 12.0265 147.227 13.5165 148.122 14.2748C148.472 14.5731 148.875 14.8109 149.285 15.0407L150.368 15.6491L151.319 16.1528C151.794 16.4049 152.265 16.6656 152.712 16.9705C154.251 18.027 154.764 19.6255 154.487 21.3996C154.172 23.2151 152.62 24.9624 149.621 24.9624C148.476 24.9624 147.372 24.6374 146.359 23.8517C145.281 23.0253 144.886 22.1179 144.886 20.4787C144.886 20.4484 144.908 20.4179 144.936 20.4046L144.965 20.3977H147.161C147.2 20.3977 147.24 20.438 147.24 20.4787C147.24 20.6278 147.266 20.9665 147.319 21.1427C147.622 22.1179 148.489 22.7409 149.608 22.8087C150.634 22.8765 151.659 22.2942 152.054 21.4539C152.488 20.5329 152.173 19.3679 151.173 18.7317L151.045 18.6511L150.57 18.3709L149.998 18.0475L147.235 16.5436L147.067 16.4469L147.016 16.4153C144.136 14.5727 144.623 8.73486 149.976 8.73486H149.975ZM163.103 9.04636C163.133 9.04636 163.162 9.06931 163.175 9.09782L163.182 9.12771V15.2232C163.182 15.2774 163.233 15.3143 163.28 15.299L163.313 15.2774L169.114 9.07348C169.122 9.06366 169.133 9.05583 169.144 9.05054L169.167 9.04636H171.968C172.021 9.04636 172.056 9.09851 172.042 9.14718L172.021 9.18195L165.181 16.4966C165.172 16.5065 165.166 16.5184 165.163 16.5313C165.16 16.5443 165.16 16.5578 165.163 16.5707L165.181 16.6048L172.783 24.6912C172.825 24.7239 172.808 24.7914 172.773 24.8237L172.744 24.8407H169.942L169.916 24.832L169.89 24.8133L163.314 17.824C163.282 17.7805 163.217 17.7979 163.192 17.8414L163.182 17.8782V24.7594C163.182 24.7896 163.16 24.8202 163.132 24.8334L163.103 24.8404H160.906C160.877 24.8404 160.847 24.8178 160.834 24.7893L160.827 24.7594V9.12771C160.827 9.09712 160.849 9.06688 160.877 9.05332L160.906 9.04636H163.103ZM51.3815 9.0328C51.4078 9.0328 51.4287 9.03906 51.4431 9.05505L51.4606 9.08704L53.2624 15.2096C53.2663 15.2234 53.2736 15.2359 53.2835 15.246C53.2934 15.2561 53.3056 15.2635 53.319 15.2674C53.3324 15.2713 53.3465 15.2716 53.36 15.2683C53.3736 15.265 53.3861 15.2582 53.3964 15.2486L53.4203 15.2096L55.2224 9.08739C55.2316 9.06729 55.247 9.0509 55.2662 9.0408L55.3012 9.0328H58.6289C58.6586 9.0328 58.6882 9.05575 58.701 9.08426L58.7077 9.11416V24.7462C58.7077 24.7764 58.6855 24.807 58.6579 24.8202L58.6289 24.8272H56.4322C56.4029 24.8272 56.3733 24.8046 56.3602 24.7761L56.3534 24.7462V12.8668C56.3534 12.7875 56.2622 12.7555 56.2164 12.8021L56.1955 12.8396L54.3806 19.0029L54.249 19.4361C54.2397 19.456 54.2243 19.4723 54.2052 19.4823L54.1702 19.4903H52.4866C52.46 19.4903 52.4395 19.4844 52.425 19.4684L52.4075 19.4361L52.2762 19.0029L50.4613 12.8396C50.4391 12.7718 50.3441 12.7701 50.3131 12.8261L50.303 12.8668V24.7462C50.303 24.7764 50.2808 24.807 50.2532 24.8202L50.2242 24.8272H48.0275C47.9979 24.8272 47.9683 24.8046 47.9555 24.7761L47.9487 24.7462V9.11416C47.9487 9.08356 47.971 9.05332 47.9986 9.03976L48.0275 9.0328H51.3815ZM115.16 9.0328C115.187 9.0328 115.207 9.03906 115.222 9.05505L115.239 9.08704L117.042 15.2096C117.046 15.2233 117.053 15.2358 117.063 15.2459C117.073 15.2559 117.085 15.2632 117.098 15.2671C117.111 15.271 117.125 15.2713 117.139 15.2681C117.152 15.2648 117.165 15.2581 117.175 15.2486L117.2 15.2096L119.001 9.08739C119.01 9.06729 119.025 9.0509 119.044 9.0408L119.079 9.0328H122.421C122.45 9.0328 122.48 9.05575 122.493 9.08426L122.499 9.11416V24.7462C122.499 24.7764 122.477 24.807 122.45 24.8202L122.421 24.8272H120.225C120.195 24.8272 120.165 24.8046 120.152 24.7761L120.146 24.7462V12.8668C120.146 12.7875 120.054 12.7555 120.008 12.8021L119.988 12.8396L118.172 19.0029L118.041 19.4361C118.032 19.4561 118.016 19.4723 117.997 19.4823L117.962 19.4903H116.278C116.252 19.4903 116.231 19.4844 116.217 19.4684L116.199 19.4361L116.067 19.0029L114.253 12.8396C114.231 12.7718 114.136 12.7701 114.105 12.8261L114.095 12.8668V24.7462C114.095 24.7764 114.073 24.807 114.045 24.8202L114.016 24.8272H111.819C111.79 24.8272 111.76 24.8046 111.747 24.7761L111.74 24.7462V9.11416C111.74 9.08356 111.762 9.05332 111.79 9.03976L111.819 9.0328H115.16ZM90.7483 9.0328C90.7644 9.0319 90.7803 9.03643 90.7937 9.04571C90.8071 9.055 90.8172 9.06853 90.8224 9.08426L90.8271 9.11416V11.0645C90.8271 11.0951 90.8049 11.1257 90.7773 11.1389L90.7483 11.1459H86.7367V24.7462C86.7367 24.7764 86.7145 24.807 86.6866 24.8202L86.6576 24.8272H84.4612C84.4316 24.8272 84.402 24.8046 84.3892 24.7761L84.3824 24.7462V11.1459H80.3702C80.3405 11.1459 80.3109 11.1229 80.2981 11.0944L80.2914 11.0645V9.11416C80.2914 9.08321 80.3136 9.05297 80.3412 9.03941L80.3702 9.03246H90.7477L90.7483 9.0328ZM101.573 8.97857C101.6 8.97857 101.62 8.98448 101.635 9.00047L101.652 9.0328L105.782 24.7184C105.786 24.7374 105.785 24.7575 105.777 24.7754C105.769 24.7933 105.756 24.8081 105.739 24.8174L105.703 24.8268H103.704C103.682 24.8244 103.662 24.8147 103.646 24.799L103.626 24.7726L102.429 20.2079C102.419 20.1879 102.404 20.1716 102.385 20.1616L102.35 20.1536H97.9297C97.9031 20.1536 97.8826 20.1595 97.8681 20.1755L97.8506 20.2079L96.6539 24.7726C96.6447 24.7926 96.6293 24.8088 96.6102 24.8188L96.5748 24.8268H94.5757C94.5569 24.8265 94.5387 24.8195 94.5242 24.8071C94.5097 24.7946 94.4997 24.7774 94.4959 24.7583L94.4966 24.7184L98.6267 9.0328C98.636 9.01283 98.6514 8.99658 98.6705 8.98657L98.7055 8.97857H101.573H101.573ZM135.666 8.97857C135.692 8.97857 135.712 8.98448 135.727 9.00047L135.745 9.0328L139.874 24.7184C139.879 24.7374 139.877 24.7575 139.869 24.7755C139.861 24.7934 139.848 24.8082 139.831 24.8174L139.795 24.8268H137.797C137.785 24.8269 137.774 24.8245 137.763 24.8197C137.752 24.8149 137.743 24.8078 137.735 24.799L137.717 24.7726L136.521 20.2079C136.512 20.1879 136.496 20.1716 136.477 20.1616L136.442 20.1536H132.022C131.996 20.1536 131.975 20.1595 131.961 20.1755L131.943 20.2079L130.747 24.7726C130.738 24.7926 130.722 24.8088 130.703 24.8188L130.668 24.8268H128.668C128.649 24.8265 128.631 24.8195 128.617 24.8071C128.602 24.7946 128.592 24.7774 128.588 24.7583L128.589 24.7184L132.719 9.0328C132.728 9.01283 132.744 8.99658 132.763 8.98657L132.798 8.97857H135.665H135.666ZM74.3602 9.04636C74.3895 9.04636 74.4191 9.06931 74.4319 9.09782L74.4386 9.12771V11.0781C74.4386 11.1087 74.4167 11.1393 74.3888 11.1525L74.3598 11.1594H67.7044C67.6747 11.1594 67.6451 11.1824 67.6323 11.2109L67.6256 11.2408V15.3859C67.6256 15.4161 67.6478 15.4467 67.6754 15.4599L67.7044 15.4669H73.5574C73.5871 15.4669 73.6167 15.4898 73.6298 15.5183L73.6366 15.5482V17.4986C73.6366 17.5292 73.6143 17.5598 73.5864 17.573L73.5574 17.5799H67.7044C67.6747 17.5799 67.6451 17.6029 67.6323 17.6314L67.6256 17.6613V22.5107C67.6256 22.5469 67.6374 22.5709 67.6569 22.5872L67.6912 22.6057H74.6359C74.6656 22.6057 74.6952 22.6282 74.7083 22.6571L74.7151 22.6867V24.7458C74.7151 24.7761 74.6928 24.8067 74.6652 24.8199L74.6359 24.8268H65.3501C65.3204 24.8268 65.2908 24.8042 65.278 24.7754L65.2713 24.7458V9.12771C65.2713 9.09712 65.2935 9.06688 65.3211 9.05332L65.3501 9.04636H74.3598H74.3602ZM100.219 11.8095C100.215 11.7958 100.208 11.7832 100.198 11.7731C100.188 11.763 100.176 11.7557 100.162 11.7518C100.149 11.7479 100.135 11.7476 100.121 11.7509C100.108 11.7542 100.095 11.7609 100.085 11.7706L100.061 11.8095L98.456 17.9186C98.4459 17.9592 98.4661 17.9999 98.4985 18.0176L98.5348 18.027H101.744C101.763 18.0266 101.781 18.0196 101.796 18.0072C101.81 17.9947 101.82 17.9776 101.824 17.9585L101.823 17.9186L100.219 11.8095ZM134.311 11.8095C134.307 11.7958 134.3 11.7832 134.29 11.7731C134.28 11.763 134.268 11.7557 134.254 11.7518C134.241 11.7479 134.227 11.7476 134.213 11.7509C134.2 11.7542 134.187 11.7609 134.177 11.7706L134.153 11.8095L132.548 17.9186C132.538 17.9592 132.558 17.9999 132.591 18.0176L132.627 18.027H135.837C135.855 18.0267 135.874 18.0197 135.888 18.0073C135.903 17.9948 135.913 17.9776 135.916 17.9585L135.916 17.9186L134.311 11.8095Z" fill="black"/>
<path d="M34.002 0L19.2466 11.2728L21.9905 4.62939L34.002 0Z" fill="#E17726"/>
<path d="M1.24341 0.0131836L13.2226 4.63006L15.8281 11.3607L1.24341 0.0131836ZM28.0643 23.974L34.5857 24.1023L32.3065 32.0966L24.3487 29.8344L28.0643 23.974ZM7.14666 23.974L10.8485 29.8344L2.90374 32.097L0.638672 24.1023L7.14666 23.974Z" fill="#E27625"/>
<path d="M15.4743 9.6463L15.741 18.5341L7.76562 18.1594L10.0341 14.6258L10.063 14.5917L15.4743 9.6463ZM19.655 9.54688L25.1488 14.5921L25.1774 14.6261L27.4458 18.1594L19.4725 18.5341L19.655 9.54688ZM11.0822 23.9996L15.437 27.503L10.3785 30.0245L11.0822 23.9996ZM24.1302 23.9993L24.8195 30.0245L19.7752 27.5026L24.1302 23.9993Z" fill="#E27625"/>
<path d="M19.8864 27.1729L25.0051 29.7319L20.2436 32.0685L20.2931 30.5243L19.8864 27.1729ZM15.3236 27.1739L14.933 30.4989L14.965 32.0668L10.1924 29.7319L15.3236 27.1739Z" fill="#D5BFB2"/>
<path d="M13.8457 19.6941L15.1834 22.5967L10.6294 21.2193L13.8457 19.6941ZM21.3658 19.6944L24.5976 21.2193L20.0287 22.5963L21.3658 19.6944Z" fill="#233447"/>
<path d="M11.4302 23.9701L10.6941 30.2168L6.74854 24.1067L11.4302 23.9701ZM23.7815 23.9701L28.4635 24.1067L24.5031 30.2171L23.7815 23.9701ZM27.5611 17.8062L24.1536 21.3915L21.5269 20.1521L20.2689 22.8819L19.4446 18.1875L27.5611 17.8062ZM7.64891 17.8062L15.7667 18.1875L14.9421 22.8819L13.6842 20.1525L11.0709 21.3915L7.64891 17.8062Z" fill="#CC6228"/>
<path d="M7.41943 17.0705L11.2741 21.1093L11.4078 25.0965L7.41943 17.0705ZM27.7963 17.0632L23.8009 25.1035L23.951 21.1093L27.7963 17.0632ZM15.5783 17.3163L15.7336 18.3249L16.1171 20.8367L15.8706 28.5512L14.7052 22.3539L14.7049 22.2899L15.5783 17.3163ZM19.6313 17.3024L20.5071 22.2899L20.5068 22.3539L19.3387 28.5668L19.2923 27.0128L19.1101 20.7908L19.6313 17.3024Z" fill="#E27525"/>
<path d="M24.2939 20.9487L24.1636 24.4131L20.0968 27.6846L19.2749 27.0849L20.1961 22.184L24.2939 20.9487ZM10.9321 20.9491L15.0158 22.1843L15.937 27.0849L15.1151 27.6846L11.0483 24.4128L10.9321 20.9491Z" fill="#F5841F"/>
<path d="M9.41406 28.967L14.6166 31.5122L14.5947 30.4251L15.0301 30.0309H20.1795L20.6303 30.4241L20.597 31.5101L25.7669 28.9733L23.2513 31.1197L20.2094 33.2769H14.9883L11.9485 31.1107L9.41406 28.967Z" fill="#C0AC9D"/>
<path d="M19.5128 26.8342L20.2485 27.3707L20.6795 30.9216L20.0556 30.3779H15.1561L14.5439 30.9327L14.9611 27.371L15.6969 26.8342H19.5128Z" fill="#161616"/>
<path d="M33.028 0.312256L34.7991 5.79827L33.693 11.3455L34.4806 11.973L33.4149 12.8126L34.2159 13.4512L33.1553 14.4487L33.8065 14.9357L32.0781 17.0196L24.9897 14.8888L24.9284 14.8547L19.8204 10.4058L33.028 0.312256ZM2.18273 0.312256L15.3906 10.4058L10.2824 14.8547L10.2211 14.8888L3.1326 17.0196L1.40459 14.9357L2.05512 14.449L0.994808 13.4512L1.7945 12.8133L0.712643 11.9713L1.53018 11.3434L0.411621 5.79862L2.18273 0.312256Z" fill="#763E1A"/>
<path d="M24.6422 14.4226L32.153 16.6806L34.5931 24.4452H28.1558L23.72 24.5029L26.9457 18.0111L24.6422 14.4226ZM10.5673 14.4226L8.26317 18.0111L11.4896 24.5029L7.05605 24.4452H0.629883L3.05657 16.6806L10.5673 14.4226ZM22.358 4.59229L20.2569 10.4506L19.8111 18.3643L19.6407 20.8449L19.6272 27.1816H15.5823L15.5692 20.8567L15.3981 18.3623L14.952 10.4506L12.8516 4.59229H22.358Z" fill="#F5841F"/>
</g>
<defs>
<clipPath id="clip0_222_103131">
<rect width="172.397" height="33.375" fill="white" transform="translate(0.411621)"/>
</clipPath>
</defs>
</svg>
