<svg width="31" height="29" viewBox="0 0 31 29" fill="none" xmlns="http://www.w3.org/2000/svg">
<path d="M27.1458 13.7999V20.1649H27.1509C27.1509 20.6937 26.9951 21.1928 26.7238 21.6178L26.7188 21.6227C26.4575 22.0329 26.0857 22.3689 25.6486 22.5963L16.6151 27.7307C16.1529 27.9927 15.6404 28.1113 15.138 28.0964H15.1329C14.6154 28.0816 14.108 27.9235 13.6809 27.6418L4.68257 22.537C4.25049 22.2899 3.90884 21.939 3.66768 21.5338C3.42652 21.1187 3.29589 20.6492 3.29589 20.1699V13.8049C4.38112 14.6647 5.56683 15.4109 6.83294 16.0237V19.7399L15.2234 24.5038L23.6138 19.735V16.0237C24.8749 15.406 26.0606 14.6647 27.1458 13.7999ZM30.4317 0.140911L30.4367 0.4473L30.4417 0.467067C30.4417 4.59838 28.7385 8.34423 25.9853 11.0523C23.232 13.7604 19.4236 15.4357 15.2234 15.4357C11.0231 15.4357 7.21478 13.7604 4.4615 11.0523C1.70321 8.34917 0 4.60332 0 0.472009L0.00502422 0.457184L0.0100484 0.0964355L3.5471 0.150795L3.54207 0.472009H3.5471C3.5471 2.85888 4.29068 5.07773 5.55678 6.91606L13.8317 2.21645V2.20657C14.2688 1.95948 14.7461 1.84088 15.2184 1.84088V1.84582C15.7107 1.84582 16.1931 1.96936 16.605 2.20657V2.21151L24.8749 6.90618C26.146 5.06784 26.8846 2.84899 26.8846 0.462126H26.8896L26.8846 0.175504L30.4317 0.140911ZM8.03875 9.52037C10.0183 11.0424 12.5103 11.9517 15.2184 11.9517C17.9264 11.9517 20.4184 11.0424 22.398 9.52037L15.2234 5.44342L8.03875 9.52037Z" fill="#5D64E9"/>
</svg>
