<svg width="163" height="29" viewBox="0 0 163 29" fill="none" xmlns="http://www.w3.org/2000/svg">
<path d="M8.45881 19.3281H6.59233C6.55824 19.0866 6.48864 18.8722 6.38352 18.6847C6.27841 18.4943 6.14347 18.3324 5.97869 18.1989C5.81392 18.0653 5.62358 17.9631 5.40767 17.892C5.1946 17.821 4.96307 17.7855 4.71307 17.7855C4.26136 17.7855 3.8679 17.8977 3.53267 18.1222C3.19744 18.3437 2.9375 18.6676 2.75284 19.0938C2.56818 19.517 2.47585 20.0312 2.47585 20.6364C2.47585 21.2585 2.56818 21.7812 2.75284 22.2045C2.94034 22.6278 3.2017 22.9474 3.53693 23.1634C3.87216 23.3793 4.25994 23.4872 4.70028 23.4872C4.94744 23.4872 5.17614 23.4545 5.38636 23.3892C5.59943 23.3239 5.78835 23.2287 5.95312 23.1037C6.1179 22.9759 6.25426 22.821 6.36222 22.6392C6.47301 22.4574 6.54972 22.25 6.59233 22.017L8.45881 22.0256C8.41051 22.4261 8.28977 22.8125 8.09659 23.1847C7.90625 23.554 7.64915 23.8849 7.32528 24.1776C7.00426 24.4673 6.62074 24.6974 6.17472 24.8679C5.73153 25.0355 5.23011 25.1193 4.67045 25.1193C3.89205 25.1193 3.19602 24.9432 2.58239 24.5909C1.97159 24.2386 1.48864 23.7287 1.13352 23.0611C0.78125 22.3935 0.605114 21.5852 0.605114 20.6364C0.605114 19.6847 0.784091 18.875 1.14205 18.2074C1.5 17.5398 1.9858 17.0312 2.59943 16.6818C3.21307 16.3295 3.90341 16.1534 4.67045 16.1534C5.17614 16.1534 5.64489 16.2244 6.0767 16.3665C6.51136 16.5085 6.89631 16.7159 7.23153 16.9886C7.56676 17.2585 7.83949 17.5895 8.04972 17.9815C8.26278 18.3736 8.39915 18.8224 8.45881 19.3281ZM12.9053 25.1278C12.2433 25.1278 11.6709 24.9872 11.1879 24.706C10.7078 24.4219 10.3371 24.027 10.0757 23.5213C9.81435 23.0128 9.68366 22.4233 9.68366 21.7528C9.68366 21.0767 9.81435 20.4858 10.0757 19.9801C10.3371 19.4716 10.7078 19.0767 11.1879 18.7955C11.6709 18.5114 12.2433 18.3693 12.9053 18.3693C13.5672 18.3693 14.1382 18.5114 14.6183 18.7955C15.1013 19.0767 15.4734 19.4716 15.7348 19.9801C15.9962 20.4858 16.1268 21.0767 16.1268 21.7528C16.1268 22.4233 15.9962 23.0128 15.7348 23.5213C15.4734 24.027 15.1013 24.4219 14.6183 24.706C14.1382 24.9872 13.5672 25.1278 12.9053 25.1278ZM12.9138 23.7216C13.2149 23.7216 13.4663 23.6364 13.668 23.4659C13.8697 23.2926 14.0217 23.0568 14.124 22.7585C14.2291 22.4602 14.2817 22.1207 14.2817 21.7401C14.2817 21.3594 14.2291 21.0199 14.124 20.7216C14.0217 20.4233 13.8697 20.1875 13.668 20.0142C13.4663 19.8409 13.2149 19.7543 12.9138 19.7543C12.6098 19.7543 12.3541 19.8409 12.1467 20.0142C11.9422 20.1875 11.7874 20.4233 11.6822 20.7216C11.58 21.0199 11.5288 21.3594 11.5288 21.7401C11.5288 22.1207 11.58 22.4602 11.6822 22.7585C11.7874 23.0568 11.9422 23.2926 12.1467 23.4659C12.3541 23.6364 12.6098 23.7216 12.9138 23.7216ZM19.3226 21.2159V25H17.5072V18.4545H19.2374V19.6094H19.3141C19.4589 19.2287 19.7018 18.9276 20.0428 18.706C20.3837 18.4815 20.797 18.3693 21.2828 18.3693C21.7374 18.3693 22.1337 18.4688 22.4717 18.6676C22.8098 18.8665 23.0726 19.1506 23.2601 19.5199C23.4476 19.8864 23.5413 20.3239 23.5413 20.8324V25H21.726V21.1562C21.7288 20.7557 21.6266 20.4432 21.4192 20.2188C21.2118 19.9915 20.9263 19.8778 20.5626 19.8778C20.3183 19.8778 20.1024 19.9304 19.9149 20.0355C19.7303 20.1406 19.5854 20.294 19.4803 20.4957C19.378 20.6946 19.3254 20.9347 19.3226 21.2159ZM26.9874 21.2159V25H25.1721V18.4545H26.9022V19.6094H26.9789C27.1238 19.2287 27.3667 18.9276 27.7076 18.706C28.0485 18.4815 28.4619 18.3693 28.9477 18.3693C29.4022 18.3693 29.7985 18.4688 30.1366 18.6676C30.4746 18.8665 30.7374 19.1506 30.9249 19.5199C31.1124 19.8864 31.2062 20.3239 31.2062 20.8324V25H29.3908V21.1562C29.3937 20.7557 29.2914 20.4432 29.084 20.2188C28.8766 19.9915 28.5911 19.8778 28.2275 19.8778C27.9832 19.8778 27.7673 19.9304 27.5798 20.0355C27.3951 20.1406 27.2502 20.294 27.1451 20.4957C27.0428 20.6946 26.9903 20.9347 26.9874 21.2159ZM35.8199 25.1278C35.1466 25.1278 34.567 24.9915 34.0812 24.7188C33.5983 24.4432 33.2261 24.054 32.9648 23.5511C32.7034 23.0455 32.5727 22.4474 32.5727 21.7571C32.5727 21.0838 32.7034 20.4929 32.9648 19.9844C33.2261 19.4759 33.594 19.0795 34.0685 18.7955C34.5457 18.5114 35.1054 18.3693 35.7474 18.3693C36.1793 18.3693 36.5812 18.4389 36.9534 18.5781C37.3284 18.7145 37.6551 18.9205 37.9335 19.196C38.2148 19.4716 38.4335 19.8182 38.5898 20.2358C38.746 20.6506 38.8241 21.1364 38.8241 21.6932V22.1918H33.2972V21.0668H37.1153C37.1153 20.8054 37.0585 20.5739 36.9449 20.3722C36.8312 20.1705 36.6736 20.0128 36.4719 19.8991C36.273 19.7827 36.0415 19.7244 35.7773 19.7244C35.5017 19.7244 35.2574 19.7884 35.0443 19.9162C34.8341 20.0412 34.6693 20.2102 34.55 20.4233C34.4307 20.6335 34.3696 20.8679 34.3668 21.1264V22.196C34.3668 22.5199 34.4264 22.7997 34.5457 23.0355C34.6679 23.2713 34.8398 23.4531 35.0614 23.581C35.283 23.7088 35.5457 23.7727 35.8497 23.7727C36.0514 23.7727 36.2361 23.7443 36.4037 23.6875C36.5713 23.6307 36.7148 23.5455 36.8341 23.4318C36.9534 23.3182 37.0443 23.179 37.1068 23.0142L38.7858 23.125C38.7006 23.5284 38.5259 23.8807 38.2616 24.1818C38.0003 24.4801 37.6622 24.7131 37.2474 24.8807C36.8355 25.0455 36.3597 25.1278 35.8199 25.1278ZM43.1662 25.1278C42.4957 25.1278 41.919 24.9858 41.4361 24.7017C40.956 24.4148 40.5866 24.017 40.3281 23.5085C40.0724 23 39.9446 22.4148 39.9446 21.7528C39.9446 21.0824 40.0739 20.4943 40.3324 19.9886C40.5938 19.4801 40.9645 19.0838 41.4446 18.7997C41.9247 18.5128 42.4957 18.3693 43.1577 18.3693C43.7287 18.3693 44.2287 18.473 44.6577 18.6804C45.0866 18.8878 45.4261 19.179 45.6761 19.554C45.9261 19.929 46.0639 20.3693 46.0895 20.875H44.3764C44.3281 20.5483 44.2003 20.2855 43.9929 20.0866C43.7884 19.8849 43.5199 19.7841 43.1875 19.7841C42.9062 19.7841 42.6605 19.8608 42.4503 20.0142C42.2429 20.1648 42.081 20.3849 41.9645 20.6747C41.848 20.9645 41.7898 21.3153 41.7898 21.7273C41.7898 22.1449 41.8466 22.5 41.9602 22.7926C42.0767 23.0852 42.2401 23.3082 42.4503 23.4616C42.6605 23.6151 42.9062 23.6918 43.1875 23.6918C43.3949 23.6918 43.581 23.6491 43.7457 23.5639C43.9134 23.4787 44.0511 23.3551 44.1591 23.1932C44.2699 23.0284 44.3423 22.831 44.3764 22.6009H46.0895C46.0611 23.1009 45.9247 23.5412 45.6804 23.9219C45.4389 24.2997 45.1051 24.5952 44.679 24.8082C44.2528 25.0213 43.7486 25.1278 43.1662 25.1278ZM50.9333 18.4545V19.8182H46.9915V18.4545H50.9333ZM47.8864 16.8864H49.7018V22.9886C49.7018 23.1562 49.7273 23.2869 49.7785 23.3807C49.8296 23.4716 49.9006 23.5355 49.9915 23.5724C50.0853 23.6094 50.1933 23.6278 50.3154 23.6278C50.4006 23.6278 50.4859 23.6207 50.5711 23.6065C50.6563 23.5895 50.7217 23.5767 50.7671 23.5682L51.0526 24.919C50.9617 24.9474 50.8339 24.9801 50.6691 25.017C50.5043 25.0568 50.304 25.081 50.0683 25.0895C49.6308 25.1065 49.2472 25.0483 48.9177 24.9148C48.591 24.7812 48.3367 24.5739 48.1549 24.2926C47.9731 24.0114 47.8836 23.6562 47.8864 23.2273V16.8864ZM58.7747 18.4545V19.8182H54.833V18.4545H58.7747ZM55.7278 16.8864H57.5432V22.9886C57.5432 23.1562 57.5687 23.2869 57.6199 23.3807C57.671 23.4716 57.742 23.5355 57.833 23.5724C57.9267 23.6094 58.0347 23.6278 58.1568 23.6278C58.242 23.6278 58.3273 23.6207 58.4125 23.6065C58.4977 23.5895 58.5631 23.5767 58.6085 23.5682L58.894 24.919C58.8031 24.9474 58.6753 24.9801 58.5105 25.017C58.3457 25.0568 58.1455 25.081 57.9097 25.0895C57.4722 25.1065 57.0886 25.0483 56.7591 24.9148C56.4324 24.7812 56.1781 24.5739 55.9963 24.2926C55.8145 24.0114 55.725 23.6562 55.7278 23.2273V16.8864ZM63.0443 25.1278C62.3824 25.1278 61.8099 24.9872 61.327 24.706C60.8469 24.4219 60.4761 24.027 60.2148 23.5213C59.9534 23.0128 59.8227 22.4233 59.8227 21.7528C59.8227 21.0767 59.9534 20.4858 60.2148 19.9801C60.4761 19.4716 60.8469 19.0767 61.327 18.7955C61.8099 18.5114 62.3824 18.3693 63.0443 18.3693C63.7062 18.3693 64.2773 18.5114 64.7574 18.7955C65.2403 19.0767 65.6125 19.4716 65.8739 19.9801C66.1352 20.4858 66.2659 21.0767 66.2659 21.7528C66.2659 22.4233 66.1352 23.0128 65.8739 23.5213C65.6125 24.027 65.2403 24.4219 64.7574 24.706C64.2773 24.9872 63.7062 25.1278 63.0443 25.1278ZM63.0528 23.7216C63.354 23.7216 63.6054 23.6364 63.8071 23.4659C64.0088 23.2926 64.1608 23.0568 64.2631 22.7585C64.3682 22.4602 64.4207 22.1207 64.4207 21.7401C64.4207 21.3594 64.3682 21.0199 64.2631 20.7216C64.1608 20.4233 64.0088 20.1875 63.8071 20.0142C63.6054 19.8409 63.354 19.7543 63.0528 19.7543C62.7489 19.7543 62.4932 19.8409 62.2858 20.0142C62.0812 20.1875 61.9264 20.4233 61.8213 20.7216C61.719 21.0199 61.6679 21.3594 61.6679 21.7401C61.6679 22.1207 61.719 22.4602 61.8213 22.7585C61.9264 23.0568 62.0812 23.2926 62.2858 23.4659C62.4932 23.6364 62.7489 23.7216 63.0528 23.7216ZM70.6577 16.2727H72.9333L75.3367 22.1364H75.439L77.8424 16.2727H80.118V25H78.3282V19.3196H78.2558L75.9972 24.9574H74.7785L72.52 19.2983H72.4475V25H70.6577V16.2727ZM84.7871 25.1278C84.1138 25.1278 83.5342 24.9915 83.0484 24.7188C82.5655 24.4432 82.1933 24.054 81.932 23.5511C81.6706 23.0455 81.5399 22.4474 81.5399 21.7571C81.5399 21.0838 81.6706 20.4929 81.932 19.9844C82.1933 19.4759 82.5612 19.0795 83.0357 18.7955C83.5129 18.5114 84.0726 18.3693 84.7146 18.3693C85.1465 18.3693 85.5484 18.4389 85.9206 18.5781C86.2956 18.7145 86.6223 18.9205 86.9007 19.196C87.182 19.4716 87.4007 19.8182 87.557 20.2358C87.7132 20.6506 87.7913 21.1364 87.7913 21.6932V22.1918H82.2643V21.0668H86.0825C86.0825 20.8054 86.0257 20.5739 85.9121 20.3722C85.7984 20.1705 85.6408 20.0128 85.4391 19.8991C85.2402 19.7827 85.0087 19.7244 84.7445 19.7244C84.4689 19.7244 84.2246 19.7884 84.0115 19.9162C83.8013 20.0412 83.6365 20.2102 83.5172 20.4233C83.3979 20.6335 83.3368 20.8679 83.334 21.1264V22.196C83.334 22.5199 83.3936 22.7997 83.5129 23.0355C83.6351 23.2713 83.807 23.4531 84.0286 23.581C84.2501 23.7088 84.5129 23.7727 84.8169 23.7727C85.0186 23.7727 85.2033 23.7443 85.3709 23.6875C85.5385 23.6307 85.682 23.5455 85.8013 23.4318C85.9206 23.3182 86.0115 23.179 86.074 23.0142L87.753 23.125C87.6678 23.5284 87.493 23.8807 87.2288 24.1818C86.9675 24.4801 86.6294 24.7131 86.2146 24.8807C85.8027 25.0455 85.3268 25.1278 84.7871 25.1278ZM92.6575 18.4545V19.8182H88.7158V18.4545H92.6575ZM89.6107 16.8864H91.426V22.9886C91.426 23.1562 91.4516 23.2869 91.5027 23.3807C91.5538 23.4716 91.6249 23.5355 91.7158 23.5724C91.8095 23.6094 91.9175 23.6278 92.0396 23.6278C92.1249 23.6278 92.2101 23.6207 92.2953 23.6065C92.3805 23.5895 92.4459 23.5767 92.4913 23.5682L92.7768 24.919C92.6859 24.9474 92.5581 24.9801 92.3933 25.017C92.2285 25.0568 92.0283 25.081 91.7925 25.0895C91.355 25.1065 90.9714 25.0483 90.6419 24.9148C90.3152 24.7812 90.0609 24.5739 89.8791 24.2926C89.6973 24.0114 89.6078 23.6562 89.6107 23.2273V16.8864ZM95.9065 25.1236C95.4889 25.1236 95.1168 25.0511 94.7901 24.9062C94.4634 24.7585 94.2048 24.5412 94.0145 24.2543C93.827 23.9645 93.7332 23.6037 93.7332 23.1719C93.7332 22.8082 93.8 22.5028 93.9335 22.2557C94.067 22.0085 94.2489 21.8097 94.479 21.6591C94.7091 21.5085 94.9705 21.3949 95.2631 21.3182C95.5585 21.2415 95.8682 21.1875 96.192 21.1562C96.5727 21.1165 96.8795 21.0795 97.1125 21.0455C97.3455 21.0085 97.5145 20.9545 97.6196 20.8835C97.7247 20.8125 97.7773 20.7074 97.7773 20.5682V20.5426C97.7773 20.2727 97.692 20.0639 97.5216 19.9162C97.354 19.7685 97.1153 19.6946 96.8057 19.6946C96.479 19.6946 96.219 19.767 96.0259 19.9119C95.8327 20.054 95.7048 20.233 95.6423 20.4489L93.9634 20.3125C94.0486 19.9148 94.2162 19.571 94.4662 19.2812C94.7162 18.9886 95.0386 18.7642 95.4335 18.608C95.8313 18.4489 96.2915 18.3693 96.8142 18.3693C97.1778 18.3693 97.5259 18.4119 97.8582 18.4972C98.1935 18.5824 98.4903 18.7145 98.7489 18.8935C99.0102 19.0724 99.2162 19.3026 99.3668 19.5838C99.5173 19.8622 99.5926 20.196 99.5926 20.5852V25H97.871V24.0923H97.8199C97.7148 24.2969 97.5742 24.4773 97.398 24.6335C97.2219 24.7869 97.0102 24.9077 96.7631 24.9957C96.5159 25.081 96.2304 25.1236 95.9065 25.1236ZM96.4264 23.8707C96.6935 23.8707 96.9293 23.8182 97.1338 23.7131C97.3384 23.6051 97.4989 23.4602 97.6153 23.2784C97.7318 23.0966 97.7901 22.8906 97.7901 22.6605V21.9659C97.7332 22.0028 97.6551 22.0369 97.5557 22.0682C97.4591 22.0966 97.3497 22.1236 97.2276 22.1491C97.1054 22.1719 96.9832 22.1932 96.8611 22.2131C96.7389 22.2301 96.6281 22.2457 96.5287 22.2599C96.3156 22.2912 96.1295 22.3409 95.9705 22.4091C95.8114 22.4773 95.6878 22.5696 95.5997 22.6861C95.5117 22.7997 95.4676 22.9418 95.4676 23.1122C95.4676 23.3594 95.5571 23.5483 95.7361 23.679C95.9179 23.8068 96.148 23.8707 96.4264 23.8707ZM101.201 25V18.4545H102.931V19.6094H103.008C103.144 19.2259 103.371 18.9233 103.69 18.7017C104.008 18.4801 104.388 18.3693 104.832 18.3693C105.281 18.3693 105.663 18.4815 105.978 18.706C106.293 18.9276 106.504 19.2287 106.609 19.6094H106.677C106.81 19.2344 107.052 18.9347 107.401 18.7102C107.754 18.483 108.17 18.3693 108.65 18.3693C109.261 18.3693 109.756 18.5639 110.137 18.9531C110.521 19.3395 110.712 19.8878 110.712 20.598V25H108.901V20.956C108.901 20.5923 108.805 20.3196 108.612 20.1378C108.418 19.956 108.177 19.8651 107.887 19.8651C107.558 19.8651 107.3 19.9702 107.116 20.1804C106.931 20.3878 106.839 20.6619 106.839 21.0028V25H105.079V20.9176C105.079 20.5966 104.987 20.3409 104.802 20.1506C104.62 19.9602 104.38 19.8651 104.082 19.8651C103.88 19.8651 103.698 19.9162 103.536 20.0185C103.377 20.1179 103.251 20.2585 103.157 20.4403C103.063 20.6193 103.016 20.8295 103.016 21.071V25H101.201ZM114.213 25.1236C113.795 25.1236 113.423 25.0511 113.096 24.9062C112.77 24.7585 112.511 24.5412 112.321 24.2543C112.133 23.9645 112.039 23.6037 112.039 23.1719C112.039 22.8082 112.106 22.5028 112.24 22.2557C112.373 22.0085 112.555 21.8097 112.785 21.6591C113.015 21.5085 113.277 21.3949 113.569 21.3182C113.865 21.2415 114.174 21.1875 114.498 21.1562C114.879 21.1165 115.186 21.0795 115.419 21.0455C115.652 21.0085 115.821 20.9545 115.926 20.8835C116.031 20.8125 116.084 20.7074 116.084 20.5682V20.5426C116.084 20.2727 115.998 20.0639 115.828 19.9162C115.66 19.7685 115.422 19.6946 115.112 19.6946C114.785 19.6946 114.525 19.767 114.332 19.9119C114.139 20.054 114.011 20.233 113.949 20.4489L112.27 20.3125C112.355 19.9148 112.522 19.571 112.772 19.2812C113.022 18.9886 113.345 18.7642 113.74 18.608C114.137 18.4489 114.598 18.3693 115.12 18.3693C115.484 18.3693 115.832 18.4119 116.164 18.4972C116.5 18.5824 116.797 18.7145 117.055 18.8935C117.316 19.0724 117.522 19.3026 117.673 19.5838C117.824 19.8622 117.899 20.196 117.899 20.5852V25H116.177V24.0923H116.126C116.021 24.2969 115.88 24.4773 115.704 24.6335C115.528 24.7869 115.316 24.9077 115.069 24.9957C114.822 25.081 114.537 25.1236 114.213 25.1236ZM114.733 23.8707C115 23.8707 115.236 23.8182 115.44 23.7131C115.645 23.6051 115.805 23.4602 115.922 23.2784C116.038 23.0966 116.096 22.8906 116.096 22.6605V21.9659C116.039 22.0028 115.961 22.0369 115.862 22.0682C115.765 22.0966 115.656 22.1236 115.534 22.1491C115.412 22.1719 115.289 22.1932 115.167 22.2131C115.045 22.2301 114.934 22.2457 114.835 22.2599C114.622 22.2912 114.436 22.3409 114.277 22.4091C114.118 22.4773 113.994 22.5696 113.906 22.6861C113.818 22.7997 113.774 22.9418 113.774 23.1122C113.774 23.3594 113.863 23.5483 114.042 23.679C114.224 23.8068 114.454 23.8707 114.733 23.8707ZM124.953 20.321L123.291 20.4233C123.263 20.2812 123.202 20.1534 123.108 20.0398C123.014 19.9233 122.891 19.831 122.737 19.7628C122.587 19.6918 122.406 19.6562 122.196 19.6562C121.915 19.6562 121.678 19.7159 121.485 19.8352C121.291 19.9517 121.195 20.108 121.195 20.304C121.195 20.4602 121.257 20.5923 121.382 20.7003C121.507 20.8082 121.722 20.8949 122.026 20.9602L123.21 21.1989C123.847 21.3295 124.321 21.5398 124.634 21.8295C124.946 22.1193 125.102 22.5 125.102 22.9716C125.102 23.4006 124.976 23.777 124.723 24.1009C124.473 24.4247 124.129 24.6776 123.692 24.8594C123.257 25.0384 122.756 25.1278 122.188 25.1278C121.321 25.1278 120.631 24.9474 120.117 24.5866C119.605 24.223 119.306 23.7287 119.217 23.1037L121.003 23.0099C121.057 23.2741 121.188 23.4759 121.395 23.6151C121.602 23.7514 121.868 23.8196 122.192 23.8196C122.51 23.8196 122.766 23.7585 122.959 23.6364C123.155 23.5114 123.254 23.3509 123.257 23.1548C123.254 22.9901 123.185 22.8551 123.048 22.75C122.912 22.642 122.702 22.5597 122.418 22.5028L121.284 22.277C120.645 22.1491 120.169 21.9276 119.857 21.6122C119.547 21.2969 119.392 20.8949 119.392 20.4062C119.392 19.9858 119.506 19.6236 119.733 19.3196C119.963 19.0156 120.286 18.7812 120.7 18.6165C121.118 18.4517 121.607 18.3693 122.166 18.3693C122.993 18.3693 123.644 18.544 124.118 18.8935C124.595 19.2429 124.874 19.7187 124.953 20.321ZM128.09 23.1165L128.095 20.9389H128.359L130.455 18.4545H132.539L129.723 21.7443H129.292L128.09 23.1165ZM126.446 25V16.2727H128.261V25H126.446ZM130.536 25L128.61 22.1491L129.821 20.8665L132.663 25H130.536Z" fill="#8F90A6"/>
<path d="M137 20.5C136.724 20.5 136.5 20.7239 136.5 21C136.5 21.2761 136.724 21.5 137 21.5V20.5ZM159.286 0.646447C159.091 0.451184 158.774 0.451184 158.579 0.646447L155.397 3.82843C155.202 4.02369 155.202 4.34027 155.397 4.53553C155.592 4.7308 155.909 4.7308 156.104 4.53553L158.932 1.70711L161.761 4.53553C161.956 4.7308 162.273 4.7308 162.468 4.53553C162.663 4.34027 162.663 4.02369 162.468 3.82843L159.286 0.646447ZM137 21.5C144.569 21.5 150.197 19.7346 153.933 16.2402C157.675 12.7398 159.432 7.58563 159.432 1H158.432C158.432 7.41437 156.724 12.2602 153.25 15.5098C149.769 18.7654 144.431 20.5 137 20.5V21.5Z" fill="#8F90A6"/>
</svg>
